<svg xmlns="http://www.w3.org/2000/svg" xmlns:xlink="http://www.w3.org/1999/xlink" width="100" zoomAndPan="magnify" viewBox="0 0 75 74.999997" height="100" preserveAspectRatio="xMidYMid meet" version="1.2"><g id="c0060961ae"><path style=" stroke:none;fill-rule:nonzero;fill:#e6cf9b;fill-opacity:1;" d="M 42.226562 14.023438 C 40.425781 14.398438 39 16.949219 34.273438 28.5 C 32.773438 32.023438 30.898438 36.375 30.074219 38.25 L 28.574219 41.625 L 22.875 29.625 C 19.726562 23.023438 16.425781 16.875 15.601562 15.898438 C 14.25 14.476562 13.199219 14.25 9.074219 14.25 C 4.199219 14.324219 4.199219 14.324219 6.523438 15.375 C 7.800781 15.898438 9.226562 17.023438 9.675781 17.925781 C 10.800781 20.023438 10.726562 26.175781 9.375 36.148438 C 7.949219 46.875 6.523438 50.699219 3.449219 52.574219 L 1.125 54 L 15.375 54 L 12.824219 52.648438 C 9.675781 51.074219 9 49.050781 9.824219 43.125 C 10.125 40.648438 10.648438 34.351562 10.949219 29.023438 C 11.25 23.773438 11.699219 19.5 12 19.5 C 12.300781 19.5 13.949219 22.648438 15.601562 26.398438 C 17.25 30.226562 20.398438 37.050781 22.574219 41.625 L 26.398438 49.875 L 29.398438 43.5 C 30.976562 39.976562 33.824219 33.523438 35.699219 29.175781 C 40.5 17.773438 40.949219 17.398438 41.476562 23.699219 C 41.699219 26.550781 42.601562 31.199219 43.5 33.976562 C 44.398438 36.824219 45 39.300781 44.851562 39.375 C 44.699219 39.523438 43.125 39.300781 41.398438 38.851562 C 38.773438 38.175781 37.949219 38.25 36.375 39.300781 C 32.773438 41.625 33.449219 46.574219 37.574219 48.824219 C 39.148438 49.648438 39.148438 49.574219 37.949219 47.925781 C 37.273438 46.949219 36.75 45.300781 36.75 44.175781 C 36.75 41.175781 38.398438 40.273438 42.375 40.875 C 46.351562 41.398438 46.351562 41.25 42.601562 49.5 C 40.199219 54.976562 38.699219 56.851562 36.074219 57.824219 C 33.824219 58.726562 30.75 56.925781 30.75 54.75 C 30.75 52.648438 29.398438 52.875 28.800781 55.050781 C 27.824219 59.101562 30.523438 62.023438 34.5 61.125 C 37.273438 60.523438 41.175781 56.023438 43.050781 51.226562 C 43.875 49.273438 45.148438 46.273438 45.898438 44.550781 L 47.25 41.476562 L 51 42.074219 C 53.101562 42.375 55.800781 43.425781 57.074219 44.324219 C 59.925781 46.351562 62.550781 51.601562 61.351562 53.023438 C 59.175781 55.726562 54.074219 52.050781 52.425781 46.648438 C 51.675781 44.101562 51.148438 43.5 49.726562 43.5 C 48.601562 43.5 48 43.949219 48 44.773438 C 48 46.648438 51.449219 52.125 53.550781 53.550781 C 55.726562 54.976562 60.074219 55.125 61.351562 53.851562 C 62.550781 52.648438 63.074219 53.324219 63.523438 56.851562 C 63.898438 59.550781 63.75 59.851562 61.800781 60.601562 C 60 61.199219 61.050781 61.425781 67.125 61.425781 C 73.875 61.425781 74.476562 61.351562 73.199219 60.375 C 72.375 59.773438 71.476562 59.25 71.175781 59.25 C 70.273438 59.25 67.875 53.699219 61.574219 37.125 C 54.898438 19.648438 53.175781 17.175781 49.5 19.5 C 48.601562 20.101562 48.601562 20.324219 49.648438 21.523438 C 52.273438 24.375 52.5 26.550781 50.699219 30.449219 C 49.800781 32.398438 48.824219 33.75 48.601562 33.375 C 47.851562 32.175781 46.5 23.925781 46.5 20.625 C 46.5 18.976562 47.023438 16.800781 47.699219 15.898438 C 48.601562 14.625 48.601562 14.25 47.851562 14.25 C 47.324219 14.25 46.199219 14.101562 45.375 13.949219 C 44.550781 13.800781 43.125 13.800781 42.226562 14.023438 Z M 56.175781 36.675781 C 57.75 40.875 58.875 44.175781 58.574219 44.023438 C 57.675781 43.574219 52.875 41.476562 51.601562 41.023438 C 49.5 40.273438 49.199219 36.074219 51 31.949219 C 51.824219 29.925781 52.726562 28.425781 52.949219 28.648438 C 53.101562 28.875 54.601562 32.476562 56.175781 36.675781 Z M 56.175781 36.675781 "/></g></svg>