<?xml version="1.0" standalone="no"?>
<!DOCTYPE svg PUBLIC "-//W3C//DTD SVG 20010904//EN"
 "http://www.w3.org/TR/2001/REC-SVG-20010904/DTD/svg10.dtd">
<svg version="1.0" xmlns="http://www.w3.org/2000/svg"
 width="100.000000pt" height="100.000000pt" viewBox="0 0 100.000000 100.000000"
 preserveAspectRatio="xMidYMid meet">

<g transform="translate(0.000000,100.000000) scale(0.100000,-0.100000)"
fill="#000000" stroke="none">
<path d="M554 810 c-14 -6 -37 -48 -77 -142 -31 -74 -65 -154 -76 -178 l-20
-44 -76 159 c-42 88 -86 170 -97 182 -18 20 -32 23 -87 23 -65 -1 -65 -1 -34
-15 17 -7 36 -22 42 -34 15 -28 14 -110 -4 -243 -19 -143 -38 -194 -79 -219
l-31 -19 100 1 c77 1 93 3 69 10 -61 18 -64 32 -45 224 6 61 11 136 11 168 0
31 4 57 8 57 4 0 25 -39 47 -87 22 -49 64 -140 93 -203 l54 -115 40 85 c21 47
59 133 84 191 64 152 70 157 77 73 3 -38 15 -100 27 -137 12 -38 20 -71 18
-72 -2 -2 -23 1 -46 7 -35 9 -46 8 -67 -6 -48 -31 -39 -97 16 -127 21 -11 21
-10 5 12 -9 13 -16 35 -16 50 0 40 22 52 75 44 53 -7 53 -5 3 -115 -32 -73
-52 -98 -87 -111 -30 -12 -71 12 -71 41 0 28 -18 25 -26 -4 -13 -54 23 -93 76
-81 43 10 92 72 131 171 l34 86 51 -4 c63 -5 105 -34 133 -90 15 -31 18 -45 9
-55 -29 -36 -97 13 -119 85 -10 34 -17 42 -36 42 -15 0 -23 -6 -23 -17 0 -25
46 -98 74 -117 29 -19 87 -21 104 -4 16 16 23 7 29 -39 5 -35 3 -39 -23 -50
-25 -9 -14 -11 71 -12 89 0 98 1 80 14 -51 36 -45 25 -196 418 -46 122 -70
149 -116 128 -26 -12 -26 -12 -6 -26 38 -26 44 -67 19 -121 -12 -27 -25 -44
-28 -39 -10 16 -28 126 -28 170 0 22 7 50 15 62 14 19 13 21 -17 27 -36 7 -37
7 -64 -4z m195 -299 c21 -56 36 -100 32 -98 -12 6 -76 34 -93 40 -28 10 -32
66 -8 121 11 27 23 47 26 44 2 -3 22 -51 43 -107z"/>
</g>
</svg>
